<svg width="274" height="274" viewBox="0 0 274 274" fill="none" xmlns="http://www.w3.org/2000/svg">
<rect width="274" height="274" rx="137" fill="white"/>
<path d="M114.313 215.2C105.647 215.2 99.4466 212.733 95.7133 207.8C91.9799 202.733 90.1133 195.267 90.1133 185.4C90.1133 175.4 94.3133 147.2 102.713 100.8L92.1133 79.4C107.18 69.6667 120.913 64.8 133.313 64.8C141.18 64.8 146.047 68.5333 147.913 76C161.513 75.6 179.647 72.2 202.313 65.8C203.38 71.8 203.913 76.8667 203.913 81C203.913 89.5333 200.647 96.2667 194.113 101.2C187.713 106 180.247 108.4 171.713 108.4C163.18 108.4 154.647 106.333 146.113 102.2C146.113 102.2 145.513 105.467 144.313 112C143.38 117.2 141.847 125.133 139.713 135.8C144.247 136.867 148.513 137.4 152.513 137.4C157.98 136.333 163.98 134.8 170.513 132.8C171.18 135.067 171.513 138.8 171.513 144C171.513 149.067 169.447 153.133 165.313 156.2C161.18 159.267 156.513 160.8 151.313 160.8C146.113 160.8 140.847 160.2 135.513 159C134.047 167.4 133.313 173.467 133.313 177.2C133.313 190.133 135.313 199.8 139.313 206.2C131.313 212.2 122.98 215.2 114.313 215.2Z" fill="black"/>
</svg>
